<?xml version="1.0" encoding="utf-8"?>
<!-- Generator: Adobe Illustrator 16.0.0, SVG Export Plug-In . SVG Version: 6.00 Build 0)  -->
<!DOCTYPE svg PUBLIC "-//W3C//DTD SVG 1.1//EN" "http://www.w3.org/Graphics/SVG/1.1/DTD/svg11.dtd">
<svg version="1.1" id="Layer_1" xmlns="http://www.w3.org/2000/svg" xmlns:xlink="http://www.w3.org/1999/xlink" x="0px" y="0px"
	 width="128px" height="128px" viewBox="0 0 128 128" enable-background="new 0 0 128 128" xml:space="preserve">
<g>
	<g>
		<g>
			<path fill="#282D33" d="M46.776,72.1C46.775,72.1,46.776,72.1,46.776,72.1H46.76c-16.033,0-29.079-13.241-29.092-29.517
				c0.012-16.269,13.06-29.501,29.086-29.501c16.039,0.016,29.088,13.256,29.09,29.515C75.842,58.864,62.801,72.1,46.776,72.1z
				 M46.752,17.081c-13.82,0-25.074,11.44-25.084,25.501C21.679,56.651,32.931,68.1,46.75,68.1h0.025
				c13.821,0,25.066-11.44,25.068-25.504C71.842,28.541,60.586,17.095,46.752,17.081z"/>
		</g>
		<g>
			<path fill="#282D33" d="M46.764,57.097c0,0-0.001,0-0.001,0h-0.004c-7.885,0-14.307-6.508-14.314-14.506
				c0.005-7.996,6.425-14.499,14.312-14.499c4.706,0.005,9.11,2.352,11.784,6.279c1.651,2.421,2.525,5.265,2.527,8.225
				C61.065,50.593,54.649,57.097,46.764,57.097z M46.755,32.092c-5.681,0-10.306,4.709-10.31,10.499
				c0.005,5.792,4.632,10.507,10.314,10.507h0.004c5.68,0,10.303-4.71,10.305-10.5c-0.001-2.151-0.635-4.218-1.833-5.974
				C53.305,33.789,50.135,32.095,46.755,32.092z"/>
		</g>
		<g>
			<g>
				<g>
					<polygon fill="#282D33" points="117.246,42.562 113.658,40.795 116.885,34.241 102.719,34.244 98.625,42.559 95.037,40.792 
						100.229,30.245 123.313,30.24 					"/>
				</g>
				<g>
					<polygon fill="#282D33" points="123.311,53.11 100.23,53.11 95.037,42.559 98.625,40.792 102.719,49.11 116.883,49.11 
						113.658,42.562 117.246,40.794 					"/>
				</g>
			</g>
			<g>
				<path fill="#282D33" d="M119.365,43.75H47.651c-1.104,0-2-0.896-2-2s0.896-2,2-2h71.714c1.105,0,2,0.896,2,2
					S120.471,43.75,119.365,43.75z"/>
			</g>
		</g>
	</g>
	<g>
		<g>
			<path fill="#282D33" d="M68.93,96.732H24.362l-0.124-1.868c-0.232-3.511-0.964-8.312-3.134-11.249
				C5.135,62.745,4.688,42.816,4.688,42.621C4.688,19.12,23.528,0,46.685,0c11.228,0,21.78,4.436,29.711,12.491
				c7.926,8.047,12.289,18.747,12.289,30.129c0,0.195-0.447,20.102-16.445,41.021c-2.158,2.915-2.92,7.722-3.176,11.237
				L68.93,96.732z M28.068,92.732h37.178c0.555-4.978,1.83-8.839,3.799-11.497C84.26,61.338,84.686,42.802,84.686,42.62
				c0-10.325-3.955-20.028-11.139-27.322C66.373,8.012,56.833,4,46.685,4C25.733,4,8.688,21.325,8.688,42.621
				c0,0.182,0.425,18.74,15.613,38.59C26.662,84.406,27.66,88.954,28.068,92.732z"/>
		</g>
		<g>
			<g>
				<rect x="20.68" y="93.213" fill="#282D33" width="52.015" height="4"/>
			</g>
			<g>
				<rect x="20.68" y="103.477" fill="#282D33" width="52.015" height="4"/>
			</g>
			<g>
				<rect x="20.68" y="113.736" fill="#282D33" width="52.015" height="4"/>
			</g>
			<g>
				<rect x="27.751" y="124" fill="#282D33" width="37.87" height="4"/>
			</g>
			<g>
				<rect x="24.716" y="95.758" fill="#282D33" width="4" height="19.501"/>
			</g>
		</g>
	</g>
</g>
</svg>
